<?xml version="1.0" encoding="UTF-8" standalone="no"?>
<svg
   version="1.0"
   width="800.000000pt"
   height="600.000000pt"
   viewBox="0 0 800.000000 600.000000"
   preserveAspectRatio="xMidYMid meet"
   id="svg28"
   sodipodi:docname="flexible-1.svg"
   inkscape:version="1.2.1 (9c6d41e410, 2022-07-14)"
   xmlns:inkscape="http://www.inkscape.org/namespaces/inkscape"
   xmlns:sodipodi="http://sodipodi.sourceforge.net/DTD/sodipodi-0.dtd"
   xmlns="http://www.w3.org/2000/svg"
   xmlns:svg="http://www.w3.org/2000/svg">
  <defs
     id="defs32" />
  <sodipodi:namedview
     id="namedview30"
     pagecolor="#ffffff"
     bordercolor="#000000"
     borderopacity="0.25"
     inkscape:showpageshadow="2"
     inkscape:pageopacity="0.0"
     inkscape:pagecheckerboard="0"
     inkscape:deskcolor="#d1d1d1"
     inkscape:document-units="pt"
     showgrid="false"
     inkscape:zoom="1.005"
     inkscape:cx="533.33333"
     inkscape:cy="504.97512"
     inkscape:window-width="1920"
     inkscape:window-height="991"
     inkscape:window-x="-9"
     inkscape:window-y="-9"
     inkscape:window-maximized="1"
     inkscape:current-layer="svg28" />
  <g
     transform="matrix(0.36715848,0,0,-0.36715848,-1082.7583,2042.7967)"
     fill="#000000"
     stroke="none"
     id="g26">
    <path
       d="m 4003,5498 c -35,-17 -47,-59 -29,-101 24,-60 92,-63 122,-6 19,38 11,83 -19,104 -25,17 -43,18 -74,3 z m 22,-20 c -11,-6 -25,-19 -32,-27 -7,-9 -13,-12 -13,-7 0,16 32,46 49,46 12,-1 12,-3 -4,-12 z"
       id="path18" />
    <path
       d="m 4013,5158 c -36,-17 -46,-57 -28,-108 26,-73 40,-240 27,-312 -6,-34 -17,-65 -24,-70 -7,-4 -39,-8 -70,-8 -85,0 -279,-27 -401,-56 -252,-60 -358,-168 -274,-277 26,-35 161,-110 211,-119 40,-6 23,18 -31,47 -154,83 -125,189 74,265 93,35 443,93 460,76 8,-8 -23,-52 -65,-91 -24,-22 -61,-41 -104,-55 -113,-34 -123,-82 -25,-118 84,-32 206,-46 341,-39 119,6 246,33 269,57 9,8 5,9 -18,0 -16,-7 -102,-13 -190,-15 l -160,-4 122,9 c 115,8 256,40 269,61 6,11 -62,45 -120,60 -48,12 -91,50 -121,109 l -16,30 58,-6 c 277,-29 476,-88 532,-160 34,-43 28,-96 -14,-137 -19,-19 -53,-42 -75,-52 -39,-18 -48,-29 -32,-39 11,-7 138,49 184,81 45,31 68,69 68,113 0,91 -96,155 -305,205 -116,28 -310,55 -395,55 h -59 l -10,38 c -16,55 -13,207 5,287 29,124 29,131 0,159 -27,28 -48,31 -83,14 z m 22,-20 c -11,-6 -25,-19 -32,-27 -7,-9 -13,-12 -13,-7 0,16 32,46 49,46 12,-1 12,-3 -4,-12 z"
       id="path20" />
    <path
       d="m 3191,4564 c -236,-90 -305,-227 -173,-346 76,-69 211,-122 417,-163 458,-92 1019,-73 1395,47 121,39 181,69 236,120 82,75 82,157 2,235 -64,61 -255,151 -276,128 -4,-4 -2,-9 4,-12 5,-2 39,-20 74,-41 167,-98 159,-226 -19,-316 -153,-77 -534,-146 -811,-146 -277,0 -658,69 -811,146 -125,63 -169,149 -119,232 19,31 120,104 161,117 24,8 25,25 2,25 -10,-1 -47,-12 -82,-26 z"
       id="path22" />
    <path
       d="m 3663,4459 c -54,-27 -93,-72 -93,-108 0,-94 171,-160 440,-168 220,-8 396,29 476,99 67,59 35,143 -71,184 -47,17 -76,11 -40,-10 35,-20 75,-64 75,-83 0,-87 -201,-150 -445,-140 -134,6 -218,22 -293,58 -78,38 -86,101 -17,148 62,42 40,56 -32,20 z"
       id="path24" />
  </g>
</svg>
