<?xml version="1.0" standalone="no"?>
<!DOCTYPE svg PUBLIC "-//W3C//DTD SVG 20010904//EN"
 "http://www.w3.org/TR/2001/REC-SVG-20010904/DTD/svg10.dtd">
<svg version="1.0" xmlns="http://www.w3.org/2000/svg"
 width="1067.000000pt" height="1067.000000pt" viewBox="0 0 1067.000000 1067.000000"
 preserveAspectRatio="xMidYMid meet">
<metadata>
Created by potrace 1.14, written by Peter Selinger 2001-2017
</metadata>
<g transform="translate(0.000000,1067.000000) scale(0.100000,-0.100000)"
fill="#000000" stroke="none">
<path d="M5266 9059 c-60 -14 -160 -65 -193 -100 -93 -94 -122 -240 -77 -387
2 -7 4 -14 4 -17 0 -3 11 -28 25 -55 92 -182 256 -250 420 -175 44 20 113 82
142 128 53 84 72 154 69 262 -3 102 -10 129 -56 200 -73 114 -208 172 -334
144z m48 -87 c7 -12 -5 -24 -67 -65 -32 -21 -87 -67 -124 -103 -68 -68 -92
-72 -69 -12 17 47 129 154 179 171 48 18 74 20 81 9z"/>
<path d="M5305 7391 c-161 -45 -254 -140 -273 -278 -12 -87 -4 -168 25 -252 9
-25 16 -50 18 -56 1 -5 9 -35 19 -66 9 -31 19 -66 21 -78 3 -11 7 -31 10 -43
18 -78 54 -295 60 -358 3 -39 15 -145 20 -187 23 -178 23 -627 0 -743 -2 -14
-7 -36 -10 -50 -2 -14 -7 -40 -10 -58 -10 -61 -65 -219 -85 -245 -20 -26 -109
-55 -130 -42 -5 3 -10 3 -10 -2 0 -9 -93 -15 -267 -17 -68 0 -123 -3 -123 -6
0 -3 -24 -6 -53 -6 -56 -2 -192 -11 -192 -13 0 -1 -26 -4 -58 -6 -32 -2 -75
-7 -95 -9 -20 -3 -62 -8 -92 -12 -62 -6 -102 -11 -145 -19 -16 -2 -50 -7 -75
-9 -25 -3 -54 -7 -65 -9 -11 -3 -47 -8 -80 -12 -32 -3 -62 -8 -65 -10 -3 -2
-34 -6 -70 -10 -35 -3 -67 -8 -71 -11 -4 -2 -31 -7 -61 -10 -29 -3 -56 -8 -59
-10 -4 -2 -24 -6 -45 -9 -22 -3 -48 -8 -60 -10 -12 -3 -38 -7 -58 -11 -40 -6
-356 -71 -391 -80 -11 -3 -29 -7 -40 -9 -11 -1 -40 -8 -65 -15 -25 -7 -54 -14
-65 -16 -20 -4 -83 -22 -240 -70 -49 -15 -92 -28 -95 -29 -10 -2 -109 -40
-215 -83 -427 -172 -700 -391 -788 -630 -23 -65 -32 -194 -16 -257 5 -22 11
-48 14 -57 6 -28 52 -115 84 -161 59 -85 129 -146 279 -246 51 -33 95 -61 97
-61 1 0 32 -17 66 -39 90 -54 282 -154 359 -186 36 -15 79 -33 95 -40 17 -7
48 -19 70 -25 22 -7 49 -16 60 -20 31 -10 118 -11 134 -1 24 15 -9 62 -84 119
-39 29 -79 58 -90 63 -97 45 -301 180 -365 241 -61 59 -112 124 -140 178 -12
25 -27 54 -33 65 -21 39 -18 175 4 243 11 34 26 68 32 75 7 6 18 24 26 38 17
35 113 135 176 185 76 60 175 126 175 117 0 -4 4 -3 8 3 11 17 306 164 330
164 4 0 18 6 32 13 23 12 120 46 145 51 6 1 37 10 70 20 33 10 67 20 75 21 12
3 154 37 210 51 15 3 335 70 380 79 14 3 36 7 50 10 14 3 39 7 55 10 36 6 75
13 113 20 68 14 246 43 362 60 25 4 56 9 70 11 14 3 41 7 60 10 19 2 51 7 70
10 19 3 49 7 65 9 110 12 144 16 178 21 112 15 370 25 381 13 3 -3 7 -16 9
-29 11 -74 -241 -376 -416 -498 -60 -42 -273 -152 -294 -152 -6 0 -24 -7 -39
-15 -16 -8 -36 -15 -45 -15 -9 0 -19 -3 -23 -7 -4 -5 -11 -8 -14 -9 -54 -5
-250 -88 -318 -134 -222 -148 -155 -301 191 -438 43 -17 180 -61 210 -68 6 -1
46 -12 90 -23 90 -22 132 -31 215 -45 132 -21 165 -26 215 -30 22 -2 63 -7 90
-10 106 -11 204 -18 313 -21 62 -1 115 -5 118 -8 4 -3 17 -2 30 3 13 5 26 5
29 1 3 -5 20 -5 39 -1 19 4 40 4 47 -1 7 -4 17 -5 21 -2 5 2 68 6 141 8 127 3
263 11 337 20 19 2 67 7 105 10 72 7 87 9 165 20 90 13 106 16 165 27 33 6 69
12 80 14 38 6 188 39 230 50 11 3 31 7 44 10 32 7 139 43 178 60 17 8 34 14
38 14 15 0 105 66 105 77 0 17 -10 16 -56 -3 -21 -9 -46 -18 -56 -20 -44 -10
-55 -12 -93 -18 -175 -28 -662 -52 -1175 -60 -63 -1 -119 -4 -125 -7 -5 -3
-21 -3 -35 2 -40 12 -38 12 285 35 138 10 171 12 210 18 22 2 65 8 95 11 30 4
66 8 80 10 14 3 45 7 70 10 25 3 56 7 70 10 28 5 84 15 115 21 43 7 83 15 150
29 39 8 79 17 90 19 58 12 201 50 270 70 6 2 12 4 15 4 3 0 38 15 78 32 77 32
112 57 112 76 0 39 -206 156 -395 225 -16 6 -32 11 -35 11 -3 0 -21 6 -40 13
-19 7 -81 27 -137 45 -56 17 -105 35 -108 40 -4 6 -13 10 -21 10 -16 0 -109
61 -156 102 -14 13 -35 30 -45 39 -23 20 -92 98 -118 133 -11 16 -26 34 -32
41 -7 8 -13 16 -13 18 0 3 -18 35 -40 71 -35 57 -110 203 -110 213 0 2 21 1
48 -2 176 -17 173 -17 290 -30 23 -3 61 -7 85 -10 23 -2 80 -9 127 -15 47 -6
101 -12 120 -15 19 -2 35 -4 35 -5 0 -1 14 -3 30 -4 54 -6 138 -18 159 -22 21
-5 53 -10 116 -19 19 -2 46 -7 60 -10 14 -3 39 -7 55 -10 45 -7 85 -14 135
-25 25 -6 61 -12 80 -15 38 -5 218 -44 320 -70 36 -9 74 -18 86 -20 50 -11
316 -88 384 -112 508 -176 767 -360 836 -593 49 -167 -7 -354 -150 -495 -70
-69 -224 -185 -245 -185 -6 0 -11 -4 -11 -8 0 -4 -56 -36 -124 -71 -126 -64
-186 -108 -186 -134 0 -8 8 -25 18 -38 18 -21 22 -22 74 -11 56 11 243 80 348
129 84 39 364 177 375 186 6 4 51 33 100 66 113 73 264 220 265 258 0 6 4 13
8 15 10 4 59 122 68 163 16 71 12 209 -8 279 -31 112 -117 247 -203 317 -11 9
-36 31 -55 48 -73 65 -302 191 -470 259 -124 50 -341 125 -370 128 -9 0 -26 6
-38 13 -12 6 -22 9 -22 5 0 -3 -7 -1 -15 6 -8 7 -15 10 -15 7 0 -3 -23 1 -52
9 -28 9 -59 18 -67 20 -9 2 -63 15 -121 29 -152 38 -352 82 -405 89 -16 3 -43
7 -60 11 -82 16 -195 36 -235 41 -25 2 -52 7 -60 9 -17 5 -60 12 -116 20 -21
3 -52 8 -69 10 -65 9 -102 15 -140 20 -22 2 -56 7 -75 10 -36 5 -105 14 -150
20 -14 1 -56 6 -95 10 -38 3 -81 8 -95 10 -29 4 -135 14 -235 21 -38 3 -172 6
-297 8 -126 1 -230 4 -232 7 -3 4 -46 166 -49 190 -2 8 -6 20 -11 27 -4 7 -6
16 -3 18 3 3 1 20 -4 37 -10 35 -21 143 -23 224 -1 29 -3 53 -6 53 -16 0 3
540 26 739 4 36 8 75 9 86 2 17 16 110 20 125 0 3 4 21 8 40 4 19 10 46 13 60
3 14 7 36 10 50 3 14 7 33 10 42 3 9 6 25 8 35 2 10 14 65 26 123 12 58 24
114 26 125 30 148 27 236 -9 297 -31 53 -139 158 -187 182 -67 34 -118 38
-195 17z m63 -85 c6 -7 -24 -36 -37 -36 -6 0 -11 -4 -11 -10 0 -5 -6 -10 -12
-10 -17 -1 -78 -52 -141 -117 -45 -47 -77 -66 -77 -46 0 24 51 103 89 140 70
67 162 106 189 79z m-38 -3996 c0 -5 -2 -10 -4 -10 -3 0 -8 5 -11 10 -3 6 -1
10 4 10 6 0 11 -4 11 -10z m53 3 c-7 -2 -21 -2 -30 0 -10 3 -4 5 12 5 17 0 24
-2 18 -5z"/>
<path d="M1537 4563 c-21 -7 -48 -15 -60 -17 -52 -10 -305 -101 -394 -141 -17
-8 -34 -15 -38 -15 -6 0 -107 -45 -135 -60 -8 -5 -48 -25 -88 -44 -41 -20
-115 -60 -165 -90 -83 -49 -122 -75 -240 -163 -66 -49 -202 -185 -251 -253
-159 -215 -192 -436 -99 -669 14 -36 30 -67 35 -69 4 -2 8 -8 8 -14 0 -37 187
-248 295 -333 28 -22 52 -43 55 -46 24 -26 277 -177 370 -221 134 -62 217 -99
235 -104 6 -1 42 -16 81 -32 141 -59 643 -213 694 -214 3 0 11 -4 18 -10 6 -6
12 -8 12 -5 0 4 35 -3 95 -19 11 -3 29 -7 40 -9 18 -2 100 -21 200 -46 22 -5
65 -14 95 -20 30 -6 66 -13 80 -15 93 -19 332 -63 365 -68 22 -4 65 -11 95
-16 30 -5 73 -12 95 -15 22 -2 50 -7 63 -9 12 -3 75 -12 140 -21 64 -9 131
-18 147 -21 28 -5 80 -11 153 -18 18 -2 56 -7 85 -10 167 -20 186 -22 292 -31
39 -3 86 -7 105 -10 43 -5 175 -16 255 -21 33 -2 89 -5 125 -8 70 -5 252 -15
390 -22 47 -2 187 -6 313 -8 125 -3 232 -8 237 -11 6 -3 10 -2 10 2 0 5 21 7
48 5 26 -1 54 -3 62 -4 8 0 31 0 50 1 19 1 42 1 50 1 84 -3 619 13 820 25 47
3 126 7 175 10 50 2 113 7 140 10 28 2 80 7 116 9 36 2 90 7 120 10 50 6 97
11 209 21 25 2 63 6 85 9 38 5 109 14 185 21 50 6 171 23 206 29 12 2 45 7 75
11 61 7 102 13 139 20 14 3 40 7 58 10 74 12 100 16 152 26 30 5 73 12 95 15
22 3 56 10 75 14 19 5 49 11 65 14 64 11 178 35 243 50 46 11 119 28 133 31 9
2 34 8 54 14 21 6 42 8 47 5 4 -3 8 0 8 7 0 7 3 10 6 7 3 -4 34 2 70 12 35 10
67 19 69 19 3 1 6 1 8 2 1 0 9 2 17 4 104 24 620 186 685 215 11 5 67 28 125
50 58 23 137 56 175 74 39 18 72 33 75 33 9 1 183 105 241 144 200 134 381
321 455 469 15 30 27 55 25 55 -1 0 5 16 13 36 24 56 30 97 30 189 1 105 -5
137 -38 224 -62 163 -213 348 -381 466 -20 14 -45 33 -56 42 -12 10 -30 20
-40 23 -11 4 -19 11 -19 16 0 5 -5 9 -11 9 -6 0 -25 10 -42 23 -34 24 -63 42
-87 54 -8 4 -51 27 -95 53 -121 69 -305 157 -435 210 -88 35 -93 37 -125 48
-16 6 -39 14 -50 18 -11 4 -22 8 -25 9 -129 33 -186 38 -221 17 -39 -22 -26
-45 49 -84 153 -79 405 -226 410 -240 2 -4 10 -8 18 -8 8 0 14 -4 14 -10 0 -5
4 -10 10 -10 13 0 88 -57 169 -129 62 -55 177 -189 189 -220 3 -9 8 -18 12
-21 11 -9 48 -96 65 -153 21 -73 25 -156 10 -234 -7 -35 -10 -65 -7 -68 3 -3
1 -5 -5 -5 -5 0 -10 -6 -10 -13 0 -19 -75 -167 -84 -167 -4 0 -10 -9 -14 -20
-10 -32 -186 -202 -266 -255 -41 -27 -76 -53 -79 -56 -14 -17 -302 -168 -345
-181 -11 -4 -54 -21 -95 -38 -64 -27 -202 -76 -235 -85 -5 -1 -17 -5 -25 -8
-8 -3 -55 -18 -105 -32 -49 -15 -97 -29 -105 -32 -21 -8 -31 -11 -65 -18 -16
-3 -59 -15 -95 -25 -62 -18 -322 -82 -385 -94 -16 -4 -39 -8 -50 -11 -70 -17
-409 -84 -449 -90 -27 -3 -52 -8 -56 -10 -4 -2 -26 -7 -51 -10 -50 -7 -84 -13
-84 -15 0 -1 -16 -3 -35 -5 -19 -2 -48 -6 -65 -9 -32 -7 -74 -13 -132 -21 -21
-3 -49 -7 -63 -10 -14 -2 -47 -7 -75 -10 -27 -3 -63 -8 -80 -10 -16 -3 -46 -7
-65 -10 -19 -2 -51 -7 -70 -10 -19 -3 -60 -7 -90 -10 -30 -3 -71 -8 -90 -10
-19 -2 -55 -6 -80 -9 -25 -3 -67 -7 -95 -11 -27 -3 -81 -7 -120 -10 -38 -3
-91 -7 -117 -10 -127 -12 -354 -26 -484 -29 -61 -2 -115 -6 -121 -9 -5 -3 -15
-2 -23 3 -7 4 -19 6 -26 3 -22 -8 -334 -9 -334 0 0 4 -8 3 -19 -2 -10 -6 -20
-8 -23 -6 -2 3 -76 7 -164 10 -169 6 -253 10 -374 20 -41 3 -104 8 -140 10
-60 4 -113 9 -215 20 -38 4 -79 8 -184 20 -24 3 -48 8 -54 12 -6 4 -7 1 -2 -7
5 -9 4 -11 -3 -6 -6 4 -28 9 -49 11 -21 3 -56 8 -78 11 -94 14 -173 24 -215
29 -19 2 -51 6 -70 10 -38 7 -75 12 -130 20 -58 7 -92 12 -160 25 -98 18 -199
36 -265 46 -16 2 -48 8 -70 13 -22 5 -65 14 -95 20 -30 6 -64 13 -75 15 -148
30 -195 41 -285 62 -58 14 -112 27 -120 29 -8 2 -33 8 -55 14 -22 6 -49 12
-60 14 -11 2 -27 6 -35 10 -14 5 -228 64 -260 71 -25 6 -313 103 -345 117 -16
6 -35 13 -41 14 -7 2 -56 22 -110 46 -147 64 -302 147 -351 189 -7 5 -15 10
-19 10 -11 0 -137 101 -197 159 -97 93 -206 259 -221 337 -2 11 -10 40 -16 66
-11 44 -9 183 3 234 10 41 37 116 54 147 51 99 172 219 363 357 41 30 77 58
78 62 2 5 8 8 12 8 5 0 46 25 91 55 45 30 88 55 96 55 7 0 13 3 13 8 0 7 102
58 197 98 50 21 66 50 47 85 -7 13 -13 21 -14 18 0 -4 -15 -4 -32 0 -20 4 -49
2 -71 -6z"/>
<path d="M3738 4025 c-27 -7 -48 -11 -48 -9 0 1 -50 -19 -111 -46 -100 -44
-217 -110 -278 -157 -74 -57 -211 -215 -211 -244 0 -5 -5 -9 -11 -9 -5 0 -8
-4 -4 -9 3 -5 1 -12 -4 -15 -9 -6 -34 -104 -34 -131 1 -103 54 -218 142 -306
59 -59 221 -177 221 -162 0 3 8 -1 18 -9 14 -13 44 -28 62 -32 3 -1 15 -7 28
-14 22 -12 196 -82 217 -87 6 -1 17 -4 25 -7 14 -6 73 -22 187 -53 28 -8 62
-16 75 -19 12 -2 46 -9 73 -16 28 -6 64 -13 80 -16 17 -2 41 -6 55 -9 14 -3
41 -8 60 -11 19 -3 46 -7 60 -10 14 -2 43 -7 65 -9 22 -3 56 -7 75 -10 19 -3
55 -7 80 -10 25 -3 61 -7 80 -10 19 -2 73 -7 120 -11 47 -3 103 -8 125 -9 426
-33 1134 -17 1405 31 19 3 52 7 72 9 20 2 45 6 56 9 11 4 37 9 58 11 22 2 50
7 64 10 14 3 36 7 50 10 65 13 85 17 143 31 4 1 8 2 10 4 2 2 13 4 57 13 14 3
44 12 68 21 23 8 44 15 47 16 3 0 6 0 8 1 1 0 9 2 17 4 15 3 118 40 155 55
105 43 167 71 175 80 3 3 18 11 34 18 60 26 183 117 249 182 38 38 67 70 66
72 -2 1 6 16 16 31 50 77 68 228 38 312 -8 22 -16 45 -17 50 -5 28 -74 124
-129 179 -123 124 -341 238 -499 261 -83 12 -98 12 -118 -2 -20 -14 -20 -14 3
-37 12 -13 58 -47 102 -75 85 -56 260 -226 285 -276 8 -17 19 -36 24 -44 28
-37 23 -106 -12 -181 -30 -65 -74 -118 -145 -175 -50 -40 -190 -121 -246 -142
-25 -9 -48 -20 -51 -23 -13 -15 -303 -103 -415 -126 -68 -13 -123 -24 -145
-28 -14 -3 -25 -5 -25 -6 0 -1 -16 -3 -35 -6 -19 -2 -48 -6 -65 -9 -16 -2 -70
-9 -120 -15 -49 -6 -104 -13 -122 -15 -138 -19 -750 -27 -938 -11 -44 3 -114
9 -155 12 -126 10 -155 12 -155 14 0 1 -16 3 -35 4 -38 4 -116 14 -165 23 -16
3 -41 6 -55 8 -36 4 -92 15 -113 21 -11 3 -29 7 -40 9 -66 7 -321 84 -426 127
-14 6 -29 11 -33 10 -5 -1 -8 3 -8 8 0 6 -7 10 -15 10 -19 0 -158 74 -205 108
-61 45 -122 115 -149 172 -37 79 -37 182 2 262 37 75 119 160 226 233 78 53
165 146 149 160 -21 18 -48 21 -90 10z"/>
</g>
</svg>
